<?xml version="1.0"?>
<svg xmlns="http://www.w3.org/2000/svg" id="Capa_1" enable-background="new 0 0 512 512" height="512px" viewBox="0 0 512 512" width="512px"><g transform="matrix(-1 0 0 1 512 0)"><path d="m477.456 191.205c-1.235-2.91-3.531-5.164-6.463-6.348l-386.525-156.026c-5.127-2.07-8.38-1.617-12.745 1.798l-52.801 41.323c-3.319 2.597-5.015 6.803-4.426 10.976s3.382 7.745 7.289 9.321l422.229 170.439c3.899 1.575 8.503-.404 10.049-4.268l23.474-58.155c1.184-2.932 1.156-6.149-.081-9.06zm-158.209 4.469 39.654-31.001 7.021 49.843zm-96.565-38.979-46.381-18.722 39.655-31.001 7.021 49.843zm-134.397-109.673 46.764 18.877-39.73 31.06zm16.543 62.099 39.655-31.001 7.021 49.842zm54.93-33.248 46.763 18.876-39.729 31.06zm71.473 28.85 46.764 18.877-39.73 31.06zm16.543 62.1 39.655-31.001 7.021 49.842zm54.93-33.248 46.764 18.877-39.729 31.06zm88.016 90.95 39.655-31.001 7.021 49.842zm-9.509-12.162-7.034-49.937 46.764 18.877zm-308.206-163.133 7.026 49.881-46.683-18.844zm377.525 176.695-4.88-34.648 16.223 6.549z" fill="#e0dde2" data-original="#E0DDE2"/><path d="m382.828 278.585s41.635-42.422 56.132-57.198c3.141-3.202 7.433-5 11.919-5h35.057c3.968 0 7.185 3.217 7.185 7.185v53.972z" fill="#8f818f" data-original="#8F818F"/><path d="m485.936 216.387h-14.015v61.357l21.2-.2v-53.972c0-3.968-3.217-7.185-7.185-7.185z" fill="#695e66" data-original="#695E66"/><path d="m498 434.298h-286.162v-169.408h286.162c7.732 0 14 6.268 14 14v141.408c0 7.732-6.268 14-14 14z" fill="#fc8086" data-original="#FC8086"/><path d="m63.138 249.663-15.08 50.285c-.389 1.297-1.274 2.389-2.463 3.038l-34.878 19.05c-6.607 3.61-10.717 10.538-10.717 18.067v78.756c0 8.527 6.912 15.439 15.439 15.439h207.026v-183.868c0-8.527-6.912-15.439-15.439-15.439h-124.17c-9.091 0-17.106 5.964-19.718 14.672z" fill="#fc8086" data-original="#FC8086"/><path d="m498 264.89h-14.108v125.861c0 8.527-6.912 15.439-15.439 15.439h-256.615v28.108h286.162c7.732 0 14-6.268 14-14v-141.408c0-7.732-6.268-14-14-14z" fill="#fa4954" data-original="#FA4954"/><path d="m207.026 234.991h-12.668v161.2c0 5.523-4.477 10-10 10h-184.358v12.668c0 8.527 6.912 15.439 15.439 15.439h207.026v-183.868c0-8.527-6.912-15.439-15.439-15.439z" fill="#fa4954" data-original="#FA4954"/><circle cx="404.602" cy="437.226" fill="#8f818f" r="47.188" data-original="#8F818F"/><circle cx="404.602" cy="437.226" fill="#dfdfdf" r="17.159" data-original="#DFDFDF"/><path d="m112.835 286.035v-51.044h-29.979c-9.092 0-17.107 5.964-19.718 14.673l-13.994 46.664h53.398c5.685-.001 10.293-4.609 10.293-10.293z" fill="#695e66" data-original="#695E66"/><path d="m187.241 234.991h-44.773v51.337c0 5.523 4.477 10 10 10h23.773c6.075 0 11-4.925 11-11z" fill="#695e66" data-original="#695E66"/><path d="m95.032 234.991v51.044c0 5.684-4.608 10.293-10.293 10.293h17.803c5.685 0 10.293-4.608 10.293-10.293v-51.044z" fill="#554e57" data-original="#554E57"/><path d="m169.438 234.991v51.044c0 5.684-4.608 10.293-10.293 10.293h17.096c6.075 0 11-4.925 11-11v-50.337z" fill="#554e57" data-original="#554E57"/><path d="m153.129 378.401c-1.142 0-2.244-.391-3.151-1.086-14.872-11.392-33.463-18.168-53.646-18.168s-38.774 6.776-53.646 18.168c-.907.695-2.008 1.086-3.151 1.086h-39.535v40.458c0 8.527 6.912 15.439 15.439 15.439h207.026v-55.897z" fill="#e0dde2" data-original="#E0DDE2"/><path d="m194.358 378.401v17.789c0 5.523-4.477 10-10 10h-184.358v12.668c0 8.527 6.912 15.439 15.439 15.439h207.026v-55.897h-28.107z" fill="#c8c1c9" data-original="#C8C1C9"/><circle cx="96.332" cy="437.226" fill="#8f818f" r="47.188" data-original="#8F818F"/><path d="m122.256 397.802c4.903 7.441 7.764 16.346 7.764 25.924 0 26.061-21.127 47.188-47.188 47.188-9.577 0-18.483-2.861-25.924-7.764 8.438 12.807 22.94 21.264 39.424 21.264 26.061 0 47.188-21.127 47.188-47.188 0-16.484-8.457-30.985-21.264-39.424z" fill="#695e66" data-original="#695E66"/><circle cx="96.332" cy="437.226" fill="#dfdfdf" r="17.159" data-original="#DFDFDF"/><path d="m101.461 420.848c.507 1.62.781 3.342.781 5.128 0 9.477-7.682 17.159-17.159 17.159-1.786 0-3.509-.274-5.128-.781 2.181 6.971 8.688 12.031 16.378 12.031 9.477 0 17.159-7.682 17.159-17.159-.001-7.69-5.06-14.198-12.031-16.378z" fill="#bebebe" data-original="#BEBEBE" class="active-path"/><path d="m327.715 371.237h-43.959c-5.523 0-10-4.477-10-10v-53.568c0-5.523 4.477-10 10-10h43.959c5.523 0 10 4.477 10 10v53.568c0 5.523-4.478 10-10 10z" fill="#e0dde2" data-original="#E0DDE2"/><path d="m327.715 297.669h-3.623v49.614c0 5.705-4.625 10.33-10.33 10.33h-40.006v3.623c0 5.523 4.477 10 10 10h43.959c5.523 0 10-4.477 10-10v-53.568c0-5.522-4.477-9.999-10-9.999z" fill="#c8c1c9" data-original="#C8C1C9"/><path d="m409.73 420.848c.507 1.62.781 3.342.781 5.128 0 9.477-7.682 17.159-17.159 17.159-1.787 0-3.509-.274-5.128-.781 2.181 6.971 8.688 12.031 16.378 12.031 9.477 0 17.159-7.682 17.159-17.159 0-7.69-5.059-14.198-12.031-16.378z" fill="#bebebe" data-original="#BEBEBE" class="active-path"/><path d="m430.525 397.802c4.903 7.441 7.764 16.346 7.764 25.924 0 26.061-21.127 47.188-47.188 47.188-9.578 0-18.483-2.861-25.924-7.764 8.438 12.807 22.94 21.264 39.424 21.264 26.061 0 47.188-21.127 47.188-47.188.001-16.484-8.457-30.985-21.264-39.424z" fill="#695e66" data-original="#695E66"/></g> </svg>
